<?xml version="1.0" encoding="utf-8"?>
<!-- Generator: Adobe Illustrator 25.2.0, SVG Export Plug-In . SVG Version: 6.00 Build 0)  -->
<svg version="1.1" id="Layer_1" xmlns="http://www.w3.org/2000/svg" xmlns:xlink="http://www.w3.org/1999/xlink" x="0px" y="0px"
	 viewBox="0 0 64 64" style="enable-background:new 0 0 64 64;" xml:space="preserve">
<style type="text/css">
	.st0{fill:#B400FF;}
	.st1{fill:#9A0AD6;}
	.st2{fill-rule:evenodd;clip-rule:evenodd;fill:#310146;}
	.st3{fill:#7902AB;}
	.st4{fill:#D078F5;}
	.st5{fill-rule:evenodd;clip-rule:evenodd;fill:#2FCF08;}
	.st6{fill-rule:evenodd;clip-rule:evenodd;fill:#00580D;}
	.st7{fill:#006117;}
	.st8{fill:#81F340;}
</style>
<g id="blue">
	<path class="st0" d="M2.3,37.8L34.7,58l27-20.2l-33-16.3L2.3,37.8z"/>
	<path class="st1" d="M19.3,38.8l16,10.3v-8.5l-16-9.5V38.8z"/>
	<path class="st2" d="M19.3,37.9l0-6.4l5.2,3.2v6.5L19.3,37.9z M30.1,44.9l0-7l5.3,3.1v7L30.1,44.9z M25.2,42.5l0-7.6l4.1,2.3
		l0.1,7.9L25.2,42.5z"/>
	<path class="st3" d="M35.3,49.1l12-8.4l0.1-8.6l-12.1,8.3V49.1z"/>
	<path class="st4" d="M22.4,33.1l9.2,5.3l0-1.8l-9.2-5.1L22.4,33.1z"/>
</g>
<g id="green">
	<path class="st5" d="M22.4,32.9l-3.1-1.8l0-14.3l16.1,9.3l0,14.5l-3.7-2.2l0-1.8l-9.2-5.1C22.4,31.4,22.4,32.9,22.4,32.9z"/>
	<path class="st6" d="M22.4,32.1l-2.1-1.3v-5.1l4.1,2.4v4.5l-2-1.1L22.4,32.1z M25.1,32.9v-4.4l4.1,2.4v4.4L25.1,32.9z M30.1,35.7
		v-4.3l4.1,2.4v5.3l-2.6-1.6v-0.9L30.1,35.7z M20.4,24.4v-5.1l4.1,2.4v5.3C24.5,26.9,20.4,24.4,20.4,24.4z M30.1,30.1V25l4.1,2.4
		v5.3C34.3,32.6,30.1,30.1,30.1,30.1z M25.2,27.2v-5.1l4.1,2.4v5.3L25.2,27.2z"/>
	<path class="st7" d="M35.3,40.4l12.1-8.3l0.2-14.1l-12.3,8L35.3,40.4z"/>
	<path class="st8" d="M19.3,16.8l16.1,9.3l12.4-7.9l-16.3-8C31.5,10.2,19.3,16.8,19.3,16.8z"/>
</g>
</svg>
