<?xml version="1.0" encoding="utf-8"?>
<!-- Generator: Adobe Illustrator 25.2.0, SVG Export Plug-In . SVG Version: 6.00 Build 0)  -->
<svg version="1.1" id="Layer_1" xmlns="http://www.w3.org/2000/svg" xmlns:xlink="http://www.w3.org/1999/xlink" x="0px" y="0px"
	 viewBox="0 0 64 64" style="enable-background:new 0 0 64 64;" xml:space="preserve">
<style type="text/css">
	.st0{fill-rule:evenodd;clip-rule:evenodd;fill:#B400FF;}
	.st1{fill-rule:evenodd;clip-rule:evenodd;fill:#9A0AD6;}
	.st2{fill:#7902AB;}
	.st3{fill:#310146;}
	.st4{fill:#D078F5;}
	.st5{fill-rule:evenodd;clip-rule:evenodd;fill:#02FF26;}
	.st6{fill-rule:evenodd;clip-rule:evenodd;fill:#00CE1E;}
	.st7{fill-rule:evenodd;clip-rule:evenodd;fill:#00B41A;}
	.st8{fill-rule:evenodd;clip-rule:evenodd;fill:#9DFFAB;}
	.st9{fill-rule:evenodd;clip-rule:evenodd;fill:#004B12;}
	.st10{fill-rule:evenodd;clip-rule:evenodd;fill:#00580D;}
</style>
<g id="purple">
	<path class="st0" d="M47,30.5l14.7,7.3L34.7,58L2.3,37.8l14.4-8.9l0,1.1l18.5,10L16.6,30L15,31.8l1.7,1l0,2.3l18.5,11.1L47,38.7
		v-4.4l-11.8,7.1L47,34.3l0-1.5L35.2,40L47,32.8C47,32.8,47,30.5,47,30.5z M35.2,24.7L35.2,24.7l0,15.3l0,0l0,0L35.2,24.7z
		 M35.2,40.5v0.9l0,0L35.2,40.5z"/>
	<path class="st1" d="M18.4,36.2l-1.7-1l0-2.3l1.8,1L18.4,36.2z M31.5,41.3l2.4,1.4l1.3-1.3l0,4.9l-3.7-2.2V41.3z"/>
	<path class="st2" d="M47,38.7l-11.8,7.5l0-4.9L47,34.3C47,34.3,47,38.7,47,38.7z"/>
	<path class="st3" d="M18.4,36.2l0.1-2.4l13.1,7.5v2.7C31.5,44.1,18.4,36.2,18.4,36.2z"/>
	<path class="st4" d="M16.6,30L15,31.8l18.9,10.8l1.3-1.3l0-1.4L16.6,30z"/>
</g>
<g id="green">
	<path class="st5" d="M35.2,21.3l-18.5-9l-1.1-0.5l13.3-6.3l19.3,8.5C48.2,13.9,35.2,21.3,35.2,21.3z M32.1,8.2l-1.6-0.7L29,6.8l0,0
		l0,0l-2.2,1.1v0L19,11.5l16,7.8l9.8-5.4l-5.6-2.5v0l-2.5-1.1L32.1,8.2C32.1,8.2,32.1,8.2,32.1,8.2z"/>
	<path class="st6" d="M39.3,11.4l5.6,2.5L35,19.4l-16-7.8l7.7-3.7v2.7l3.5,1.7l0-3v3l2-1.1v-3l4.7,2.1L36.1,10l-2.2,1.1v2.7l3.5,1.7
		l0-3v3l2-1.1C39.3,14.4,39.3,11.4,39.3,11.4z M28.9,6.8L28.9,6.8l1.6,0.7L28.9,6.8z"/>
	<path class="st7" d="M16.7,30l0-17.7l18.5,9l0,18.7L16.7,30z M25,33.6l1.5,0.8V18.5L25,17.7L25,33.6z M21.5,31.8l1.5,0.8V16.7
		l-1.5-0.8L21.5,31.8z M32.2,37.4l1.5,0.8V22l-1.5-0.8L32.2,37.4z M28.7,35.6l1.5,0.8V20.2l-1.5-0.8C28.6,19.4,28.7,35.6,28.7,35.6z
		 M18,30l1.5,0.8V15L18,14.3L18,30z M33.9,13.8v-2.7l3.5,1.5l0,3C37.3,15.5,33.9,13.8,33.9,13.8z M26.7,10.6V7.8l3.5,1.5l0,3
		C30.2,12.3,26.7,10.6,26.7,10.6z M35.2,40L47,32.8l0,1.5l-11.9,7.1C35.2,41.4,35.2,40,35.2,40z"/>
	<path class="st8" d="M33.9,11.1l2.2-1.1l3.2,1.4l-2,1.1C37.3,12.5,33.9,11.1,33.9,11.1z M26.7,7.8l2.2-1.1l3.2,1.4l-2,1.1
		C30.2,9.3,26.7,7.8,26.7,7.8z"/>
	<path class="st9" d="M35.2,40l0-18.7L47,14.6v18.2L35.2,40z M37.3,15.5v-3l2-1.1v3L37.3,15.5z M30.2,12.3v-3l2-1.1v3
		C32.1,11.2,30.2,12.3,30.2,12.3z"/>
	<path class="st10" d="M32.2,37.4l0-16.2l1.5,0.8v16.2L32.2,37.4z M28.7,35.6l0-16.2l1.5,0.8v16.1C30.1,36.4,28.7,35.6,28.7,35.6z
		 M25,33.6l0-15.9l1.5,0.8v15.9L25,33.6z M21.5,31.8l0-15.9l1.5,0.8v15.8L21.5,31.8z M18,30l0-15.7l1.5,0.8v15.7
		C19.5,30.7,18,30,18,30z"/>
</g>
</svg>
